<svg xmlns="http://www.w3.org/2000/svg" width="106" height="62" viewBox="0 0 106 62">
  <g fill="none" fill-rule="evenodd">
    <polygon fill="#FC3" points="20.879 12.237 0 44.342 20.879 55.579"/>
    <polygon fill="#FFA814" points="20.879 12.237 20.879 55.579 41.758 44.342"/>
    <polygon fill="#F6850D" points="17.667 1 17.667 61.197 46.576 45.947" opacity=".34"/>
    <path fill="#FFF" d="M84.8372606,23.3200605 C85.8410485,24.3040868 86.3421394,25.7375868 86.3421394,27.6221658 L86.3421394,35.45585 L84.5176545,35.45585 L84.5176545,27.8019553 C84.5176545,26.39735 84.1659273,25.3266395 83.4640788,24.5914289 C82.7606242,23.8546132 81.7584424,23.4870079 80.4559273,23.4870079 C78.9992303,23.4870079 77.8476848,23.9188237 77.0012909,24.7824553 C76.1516848,25.6476921 75.7276848,26.8420079 75.7276848,28.3670079 L75.7276848,35.45585 L73.9032,35.45585 L73.9032,21.9459553 L75.6505939,21.9459553 L75.6505939,24.4357184 C76.1484727,23.6154289 76.8390788,22.9765342 77.7192,22.52385 C78.6009273,22.0695605 79.6255939,21.8416132 80.7899879,21.8416132 C82.4875939,21.8416132 83.8366848,22.3360342 84.8372606,23.3200605"/>
    <polygon fill="#FFF" points="97.931 28.675 94.746 31.602 94.746 35.456 92.921 35.456 92.921 16.398 94.746 16.398 94.746 29.316 102.815 21.946 105.074 21.946 99.292 27.468 105.614 35.456 103.38 35.456"/>
    <polygon fill="#FFF" points="60.543 19.454 53.371 35.456 51.394 35.456 60.543 15.448 61.493 17.477 69.715 35.456 67.71 35.456"/>
  </g>
</svg>
